<?xml version="1.0" encoding="utf-8" ?>
<svg baseProfile="full" height="1024" version="1.1" width="1024" xmlns="http://www.w3.org/2000/svg" xmlns:ev="http://www.w3.org/2001/xml-events" xmlns:xlink="http://www.w3.org/1999/xlink"><defs /><rect fill="#1B4332" height="1024" width="1024" x="0" y="0" /><line stroke="#245840" stroke-width="2" x1="30" x2="30" y1="90" y2="60" /><circle cx="30" cy="60" fill="none" r="7.5" stroke="#245840" stroke-width="2" /><path d="M10,110 q40.0,-20 80,0" fill="none" stroke="#245840" stroke-width="2" /><line stroke="#245840" stroke-width="2" x1="30" x2="30" y1="210" y2="180" /><circle cx="30" cy="180" fill="none" r="7.5" stroke="#245840" stroke-width="2" /><path d="M10,230 q40.0,-20 80,0" fill="none" stroke="#245840" stroke-width="2" /><line stroke="#245840" stroke-width="2" x1="30" x2="30" y1="330" y2="300" /><circle cx="30" cy="300" fill="none" r="7.5" stroke="#245840" stroke-width="2" /><path d="M10,350 q40.0,-20 80,0" fill="none" stroke="#245840" stroke-width="2" /><line stroke="#245840" stroke-width="2" x1="30" x2="30" y1="450" y2="420" /><circle cx="30" cy="420" fill="none" r="7.5" stroke="#245840" stroke-width="2" /><path d="M10,470 q40.0,-20 80,0" fill="none" stroke="#245840" stroke-width="2" /><line stroke="#245840" stroke-width="2" x1="30" x2="30" y1="570" y2="540" /><circle cx="30" cy="540" fill="none" r="7.5" stroke="#245840" stroke-width="2" /><path d="M10,590 q40.0,-20 80,0" fill="none" stroke="#245840" stroke-width="2" /><line stroke="#245840" stroke-width="2" x1="30" x2="30" y1="690" y2="660" /><circle cx="30" cy="660" fill="none" r="7.5" stroke="#245840" stroke-width="2" /><path d="M10,710 q40.0,-20 80,0" fill="none" stroke="#245840" stroke-width="2" /><line stroke="#245840" stroke-width="2" x1="30" x2="30" y1="810" y2="780" /><circle cx="30" cy="780" fill="none" r="7.5" stroke="#245840" stroke-width="2" /><path d="M10,830 q40.0,-20 80,0" fill="none" stroke="#245840" stroke-width="2" /><line stroke="#245840" stroke-width="2" x1="30" x2="30" y1="930" y2="900" /><circle cx="30" cy="900" fill="none" r="7.5" stroke="#245840" stroke-width="2" /><path d="M10,950 q40.0,-20 80,0" fill="none" stroke="#245840" stroke-width="2" /><line stroke="#245840" stroke-width="2" x1="30" x2="30" y1="1050" y2="1020" /><circle cx="30" cy="1020" fill="none" r="7.5" stroke="#245840" stroke-width="2" /><path d="M10,1070 q40.0,-20 80,0" fill="none" stroke="#245840" stroke-width="2" /><line stroke="#245840" stroke-width="2" x1="150" x2="150" y1="90" y2="60" /><circle cx="150" cy="60" fill="none" r="7.5" stroke="#245840" stroke-width="2" /><path d="M130,110 q40.0,-20 80,0" fill="none" stroke="#245840" stroke-width="2" /><line stroke="#245840" stroke-width="2" x1="150" x2="150" y1="210" y2="180" /><circle cx="150" cy="180" fill="none" r="7.5" stroke="#245840" stroke-width="2" /><path d="M130,230 q40.0,-20 80,0" fill="none" stroke="#245840" stroke-width="2" /><line stroke="#245840" stroke-width="2" x1="150" x2="150" y1="330" y2="300" /><circle cx="150" cy="300" fill="none" r="7.5" stroke="#245840" stroke-width="2" /><path d="M130,350 q40.0,-20 80,0" fill="none" stroke="#245840" stroke-width="2" /><line stroke="#245840" stroke-width="2" x1="150" x2="150" y1="450" y2="420" /><circle cx="150" cy="420" fill="none" r="7.5" stroke="#245840" stroke-width="2" /><path d="M130,470 q40.0,-20 80,0" fill="none" stroke="#245840" stroke-width="2" /><line stroke="#245840" stroke-width="2" x1="150" x2="150" y1="570" y2="540" /><circle cx="150" cy="540" fill="none" r="7.5" stroke="#245840" stroke-width="2" /><path d="M130,590 q40.0,-20 80,0" fill="none" stroke="#245840" stroke-width="2" /><line stroke="#245840" stroke-width="2" x1="150" x2="150" y1="690" y2="660" /><circle cx="150" cy="660" fill="none" r="7.5" stroke="#245840" stroke-width="2" /><path d="M130,710 q40.0,-20 80,0" fill="none" stroke="#245840" stroke-width="2" /><line stroke="#245840" stroke-width="2" x1="150" x2="150" y1="810" y2="780" /><circle cx="150" cy="780" fill="none" r="7.5" stroke="#245840" stroke-width="2" /><path d="M130,830 q40.0,-20 80,0" fill="none" stroke="#245840" stroke-width="2" /><line stroke="#245840" stroke-width="2" x1="150" x2="150" y1="930" y2="900" /><circle cx="150" cy="900" fill="none" r="7.5" stroke="#245840" stroke-width="2" /><path d="M130,950 q40.0,-20 80,0" fill="none" stroke="#245840" stroke-width="2" /><line stroke="#245840" stroke-width="2" x1="150" x2="150" y1="1050" y2="1020" /><circle cx="150" cy="1020" fill="none" r="7.5" stroke="#245840" stroke-width="2" /><path d="M130,1070 q40.0,-20 80,0" fill="none" stroke="#245840" stroke-width="2" /><line stroke="#245840" stroke-width="2" x1="270" x2="270" y1="90" y2="60" /><circle cx="270" cy="60" fill="none" r="7.5" stroke="#245840" stroke-width="2" /><path d="M250,110 q40.0,-20 80,0" fill="none" stroke="#245840" stroke-width="2" /><line stroke="#245840" stroke-width="2" x1="270" x2="270" y1="210" y2="180" /><circle cx="270" cy="180" fill="none" r="7.5" stroke="#245840" stroke-width="2" /><path d="M250,230 q40.0,-20 80,0" fill="none" stroke="#245840" stroke-width="2" /><line stroke="#245840" stroke-width="2" x1="270" x2="270" y1="330" y2="300" /><circle cx="270" cy="300" fill="none" r="7.5" stroke="#245840" stroke-width="2" /><path d="M250,350 q40.0,-20 80,0" fill="none" stroke="#245840" stroke-width="2" /><line stroke="#245840" stroke-width="2" x1="270" x2="270" y1="450" y2="420" /><circle cx="270" cy="420" fill="none" r="7.5" stroke="#245840" stroke-width="2" /><path d="M250,470 q40.0,-20 80,0" fill="none" stroke="#245840" stroke-width="2" /><line stroke="#245840" stroke-width="2" x1="270" x2="270" y1="570" y2="540" /><circle cx="270" cy="540" fill="none" r="7.5" stroke="#245840" stroke-width="2" /><path d="M250,590 q40.0,-20 80,0" fill="none" stroke="#245840" stroke-width="2" /><line stroke="#245840" stroke-width="2" x1="270" x2="270" y1="690" y2="660" /><circle cx="270" cy="660" fill="none" r="7.5" stroke="#245840" stroke-width="2" /><path d="M250,710 q40.0,-20 80,0" fill="none" stroke="#245840" stroke-width="2" /><line stroke="#245840" stroke-width="2" x1="270" x2="270" y1="810" y2="780" /><circle cx="270" cy="780" fill="none" r="7.5" stroke="#245840" stroke-width="2" /><path d="M250,830 q40.0,-20 80,0" fill="none" stroke="#245840" stroke-width="2" /><line stroke="#245840" stroke-width="2" x1="270" x2="270" y1="930" y2="900" /><circle cx="270" cy="900" fill="none" r="7.5" stroke="#245840" stroke-width="2" /><path d="M250,950 q40.0,-20 80,0" fill="none" stroke="#245840" stroke-width="2" /><line stroke="#245840" stroke-width="2" x1="270" x2="270" y1="1050" y2="1020" /><circle cx="270" cy="1020" fill="none" r="7.5" stroke="#245840" stroke-width="2" /><path d="M250,1070 q40.0,-20 80,0" fill="none" stroke="#245840" stroke-width="2" /><line stroke="#245840" stroke-width="2" x1="390" x2="390" y1="90" y2="60" /><circle cx="390" cy="60" fill="none" r="7.5" stroke="#245840" stroke-width="2" /><path d="M370,110 q40.0,-20 80,0" fill="none" stroke="#245840" stroke-width="2" /><line stroke="#245840" stroke-width="2" x1="390" x2="390" y1="210" y2="180" /><circle cx="390" cy="180" fill="none" r="7.5" stroke="#245840" stroke-width="2" /><path d="M370,230 q40.0,-20 80,0" fill="none" stroke="#245840" stroke-width="2" /><line stroke="#245840" stroke-width="2" x1="390" x2="390" y1="330" y2="300" /><circle cx="390" cy="300" fill="none" r="7.5" stroke="#245840" stroke-width="2" /><path d="M370,350 q40.0,-20 80,0" fill="none" stroke="#245840" stroke-width="2" /><line stroke="#245840" stroke-width="2" x1="390" x2="390" y1="450" y2="420" /><circle cx="390" cy="420" fill="none" r="7.5" stroke="#245840" stroke-width="2" /><path d="M370,470 q40.0,-20 80,0" fill="none" stroke="#245840" stroke-width="2" /><line stroke="#245840" stroke-width="2" x1="390" x2="390" y1="570" y2="540" /><circle cx="390" cy="540" fill="none" r="7.5" stroke="#245840" stroke-width="2" /><path d="M370,590 q40.0,-20 80,0" fill="none" stroke="#245840" stroke-width="2" /><line stroke="#245840" stroke-width="2" x1="390" x2="390" y1="690" y2="660" /><circle cx="390" cy="660" fill="none" r="7.5" stroke="#245840" stroke-width="2" /><path d="M370,710 q40.0,-20 80,0" fill="none" stroke="#245840" stroke-width="2" /><line stroke="#245840" stroke-width="2" x1="390" x2="390" y1="810" y2="780" /><circle cx="390" cy="780" fill="none" r="7.5" stroke="#245840" stroke-width="2" /><path d="M370,830 q40.0,-20 80,0" fill="none" stroke="#245840" stroke-width="2" /><line stroke="#245840" stroke-width="2" x1="390" x2="390" y1="930" y2="900" /><circle cx="390" cy="900" fill="none" r="7.5" stroke="#245840" stroke-width="2" /><path d="M370,950 q40.0,-20 80,0" fill="none" stroke="#245840" stroke-width="2" /><line stroke="#245840" stroke-width="2" x1="390" x2="390" y1="1050" y2="1020" /><circle cx="390" cy="1020" fill="none" r="7.5" stroke="#245840" stroke-width="2" /><path d="M370,1070 q40.0,-20 80,0" fill="none" stroke="#245840" stroke-width="2" /><line stroke="#245840" stroke-width="2" x1="510" x2="510" y1="90" y2="60" /><circle cx="510" cy="60" fill="none" r="7.5" stroke="#245840" stroke-width="2" /><path d="M490,110 q40.0,-20 80,0" fill="none" stroke="#245840" stroke-width="2" /><line stroke="#245840" stroke-width="2" x1="510" x2="510" y1="210" y2="180" /><circle cx="510" cy="180" fill="none" r="7.5" stroke="#245840" stroke-width="2" /><path d="M490,230 q40.0,-20 80,0" fill="none" stroke="#245840" stroke-width="2" /><line stroke="#245840" stroke-width="2" x1="510" x2="510" y1="330" y2="300" /><circle cx="510" cy="300" fill="none" r="7.5" stroke="#245840" stroke-width="2" /><path d="M490,350 q40.0,-20 80,0" fill="none" stroke="#245840" stroke-width="2" /><line stroke="#245840" stroke-width="2" x1="510" x2="510" y1="450" y2="420" /><circle cx="510" cy="420" fill="none" r="7.5" stroke="#245840" stroke-width="2" /><path d="M490,470 q40.0,-20 80,0" fill="none" stroke="#245840" stroke-width="2" /><line stroke="#245840" stroke-width="2" x1="510" x2="510" y1="570" y2="540" /><circle cx="510" cy="540" fill="none" r="7.5" stroke="#245840" stroke-width="2" /><path d="M490,590 q40.0,-20 80,0" fill="none" stroke="#245840" stroke-width="2" /><line stroke="#245840" stroke-width="2" x1="510" x2="510" y1="690" y2="660" /><circle cx="510" cy="660" fill="none" r="7.5" stroke="#245840" stroke-width="2" /><path d="M490,710 q40.0,-20 80,0" fill="none" stroke="#245840" stroke-width="2" /><line stroke="#245840" stroke-width="2" x1="510" x2="510" y1="810" y2="780" /><circle cx="510" cy="780" fill="none" r="7.5" stroke="#245840" stroke-width="2" /><path d="M490,830 q40.0,-20 80,0" fill="none" stroke="#245840" stroke-width="2" /><line stroke="#245840" stroke-width="2" x1="510" x2="510" y1="930" y2="900" /><circle cx="510" cy="900" fill="none" r="7.5" stroke="#245840" stroke-width="2" /><path d="M490,950 q40.0,-20 80,0" fill="none" stroke="#245840" stroke-width="2" /><line stroke="#245840" stroke-width="2" x1="510" x2="510" y1="1050" y2="1020" /><circle cx="510" cy="1020" fill="none" r="7.5" stroke="#245840" stroke-width="2" /><path d="M490,1070 q40.0,-20 80,0" fill="none" stroke="#245840" stroke-width="2" /><line stroke="#245840" stroke-width="2" x1="630" x2="630" y1="90" y2="60" /><circle cx="630" cy="60" fill="none" r="7.5" stroke="#245840" stroke-width="2" /><path d="M610,110 q40.0,-20 80,0" fill="none" stroke="#245840" stroke-width="2" /><line stroke="#245840" stroke-width="2" x1="630" x2="630" y1="210" y2="180" /><circle cx="630" cy="180" fill="none" r="7.5" stroke="#245840" stroke-width="2" /><path d="M610,230 q40.0,-20 80,0" fill="none" stroke="#245840" stroke-width="2" /><line stroke="#245840" stroke-width="2" x1="630" x2="630" y1="330" y2="300" /><circle cx="630" cy="300" fill="none" r="7.5" stroke="#245840" stroke-width="2" /><path d="M610,350 q40.0,-20 80,0" fill="none" stroke="#245840" stroke-width="2" /><line stroke="#245840" stroke-width="2" x1="630" x2="630" y1="450" y2="420" /><circle cx="630" cy="420" fill="none" r="7.5" stroke="#245840" stroke-width="2" /><path d="M610,470 q40.0,-20 80,0" fill="none" stroke="#245840" stroke-width="2" /><line stroke="#245840" stroke-width="2" x1="630" x2="630" y1="570" y2="540" /><circle cx="630" cy="540" fill="none" r="7.5" stroke="#245840" stroke-width="2" /><path d="M610,590 q40.0,-20 80,0" fill="none" stroke="#245840" stroke-width="2" /><line stroke="#245840" stroke-width="2" x1="630" x2="630" y1="690" y2="660" /><circle cx="630" cy="660" fill="none" r="7.5" stroke="#245840" stroke-width="2" /><path d="M610,710 q40.0,-20 80,0" fill="none" stroke="#245840" stroke-width="2" /><line stroke="#245840" stroke-width="2" x1="630" x2="630" y1="810" y2="780" /><circle cx="630" cy="780" fill="none" r="7.5" stroke="#245840" stroke-width="2" /><path d="M610,830 q40.0,-20 80,0" fill="none" stroke="#245840" stroke-width="2" /><line stroke="#245840" stroke-width="2" x1="630" x2="630" y1="930" y2="900" /><circle cx="630" cy="900" fill="none" r="7.5" stroke="#245840" stroke-width="2" /><path d="M610,950 q40.0,-20 80,0" fill="none" stroke="#245840" stroke-width="2" /><line stroke="#245840" stroke-width="2" x1="630" x2="630" y1="1050" y2="1020" /><circle cx="630" cy="1020" fill="none" r="7.5" stroke="#245840" stroke-width="2" /><path d="M610,1070 q40.0,-20 80,0" fill="none" stroke="#245840" stroke-width="2" /><line stroke="#245840" stroke-width="2" x1="750" x2="750" y1="90" y2="60" /><circle cx="750" cy="60" fill="none" r="7.5" stroke="#245840" stroke-width="2" /><path d="M730,110 q40.0,-20 80,0" fill="none" stroke="#245840" stroke-width="2" /><line stroke="#245840" stroke-width="2" x1="750" x2="750" y1="210" y2="180" /><circle cx="750" cy="180" fill="none" r="7.5" stroke="#245840" stroke-width="2" /><path d="M730,230 q40.0,-20 80,0" fill="none" stroke="#245840" stroke-width="2" /><line stroke="#245840" stroke-width="2" x1="750" x2="750" y1="330" y2="300" /><circle cx="750" cy="300" fill="none" r="7.5" stroke="#245840" stroke-width="2" /><path d="M730,350 q40.0,-20 80,0" fill="none" stroke="#245840" stroke-width="2" /><line stroke="#245840" stroke-width="2" x1="750" x2="750" y1="450" y2="420" /><circle cx="750" cy="420" fill="none" r="7.5" stroke="#245840" stroke-width="2" /><path d="M730,470 q40.0,-20 80,0" fill="none" stroke="#245840" stroke-width="2" /><line stroke="#245840" stroke-width="2" x1="750" x2="750" y1="570" y2="540" /><circle cx="750" cy="540" fill="none" r="7.5" stroke="#245840" stroke-width="2" /><path d="M730,590 q40.0,-20 80,0" fill="none" stroke="#245840" stroke-width="2" /><line stroke="#245840" stroke-width="2" x1="750" x2="750" y1="690" y2="660" /><circle cx="750" cy="660" fill="none" r="7.5" stroke="#245840" stroke-width="2" /><path d="M730,710 q40.0,-20 80,0" fill="none" stroke="#245840" stroke-width="2" /><line stroke="#245840" stroke-width="2" x1="750" x2="750" y1="810" y2="780" /><circle cx="750" cy="780" fill="none" r="7.5" stroke="#245840" stroke-width="2" /><path d="M730,830 q40.0,-20 80,0" fill="none" stroke="#245840" stroke-width="2" /><line stroke="#245840" stroke-width="2" x1="750" x2="750" y1="930" y2="900" /><circle cx="750" cy="900" fill="none" r="7.5" stroke="#245840" stroke-width="2" /><path d="M730,950 q40.0,-20 80,0" fill="none" stroke="#245840" stroke-width="2" /><line stroke="#245840" stroke-width="2" x1="750" x2="750" y1="1050" y2="1020" /><circle cx="750" cy="1020" fill="none" r="7.5" stroke="#245840" stroke-width="2" /><path d="M730,1070 q40.0,-20 80,0" fill="none" stroke="#245840" stroke-width="2" /><line stroke="#245840" stroke-width="2" x1="870" x2="870" y1="90" y2="60" /><circle cx="870" cy="60" fill="none" r="7.5" stroke="#245840" stroke-width="2" /><path d="M850,110 q40.0,-20 80,0" fill="none" stroke="#245840" stroke-width="2" /><line stroke="#245840" stroke-width="2" x1="870" x2="870" y1="210" y2="180" /><circle cx="870" cy="180" fill="none" r="7.5" stroke="#245840" stroke-width="2" /><path d="M850,230 q40.0,-20 80,0" fill="none" stroke="#245840" stroke-width="2" /><line stroke="#245840" stroke-width="2" x1="870" x2="870" y1="330" y2="300" /><circle cx="870" cy="300" fill="none" r="7.5" stroke="#245840" stroke-width="2" /><path d="M850,350 q40.0,-20 80,0" fill="none" stroke="#245840" stroke-width="2" /><line stroke="#245840" stroke-width="2" x1="870" x2="870" y1="450" y2="420" /><circle cx="870" cy="420" fill="none" r="7.5" stroke="#245840" stroke-width="2" /><path d="M850,470 q40.0,-20 80,0" fill="none" stroke="#245840" stroke-width="2" /><line stroke="#245840" stroke-width="2" x1="870" x2="870" y1="570" y2="540" /><circle cx="870" cy="540" fill="none" r="7.5" stroke="#245840" stroke-width="2" /><path d="M850,590 q40.0,-20 80,0" fill="none" stroke="#245840" stroke-width="2" /><line stroke="#245840" stroke-width="2" x1="870" x2="870" y1="690" y2="660" /><circle cx="870" cy="660" fill="none" r="7.5" stroke="#245840" stroke-width="2" /><path d="M850,710 q40.0,-20 80,0" fill="none" stroke="#245840" stroke-width="2" /><line stroke="#245840" stroke-width="2" x1="870" x2="870" y1="810" y2="780" /><circle cx="870" cy="780" fill="none" r="7.5" stroke="#245840" stroke-width="2" /><path d="M850,830 q40.0,-20 80,0" fill="none" stroke="#245840" stroke-width="2" /><line stroke="#245840" stroke-width="2" x1="870" x2="870" y1="930" y2="900" /><circle cx="870" cy="900" fill="none" r="7.5" stroke="#245840" stroke-width="2" /><path d="M850,950 q40.0,-20 80,0" fill="none" stroke="#245840" stroke-width="2" /><line stroke="#245840" stroke-width="2" x1="870" x2="870" y1="1050" y2="1020" /><circle cx="870" cy="1020" fill="none" r="7.5" stroke="#245840" stroke-width="2" /><path d="M850,1070 q40.0,-20 80,0" fill="none" stroke="#245840" stroke-width="2" /><line stroke="#245840" stroke-width="2" x1="990" x2="990" y1="90" y2="60" /><circle cx="990" cy="60" fill="none" r="7.5" stroke="#245840" stroke-width="2" /><path d="M970,110 q40.0,-20 80,0" fill="none" stroke="#245840" stroke-width="2" /><line stroke="#245840" stroke-width="2" x1="990" x2="990" y1="210" y2="180" /><circle cx="990" cy="180" fill="none" r="7.5" stroke="#245840" stroke-width="2" /><path d="M970,230 q40.0,-20 80,0" fill="none" stroke="#245840" stroke-width="2" /><line stroke="#245840" stroke-width="2" x1="990" x2="990" y1="330" y2="300" /><circle cx="990" cy="300" fill="none" r="7.5" stroke="#245840" stroke-width="2" /><path d="M970,350 q40.0,-20 80,0" fill="none" stroke="#245840" stroke-width="2" /><line stroke="#245840" stroke-width="2" x1="990" x2="990" y1="450" y2="420" /><circle cx="990" cy="420" fill="none" r="7.5" stroke="#245840" stroke-width="2" /><path d="M970,470 q40.0,-20 80,0" fill="none" stroke="#245840" stroke-width="2" /><line stroke="#245840" stroke-width="2" x1="990" x2="990" y1="570" y2="540" /><circle cx="990" cy="540" fill="none" r="7.5" stroke="#245840" stroke-width="2" /><path d="M970,590 q40.0,-20 80,0" fill="none" stroke="#245840" stroke-width="2" /><line stroke="#245840" stroke-width="2" x1="990" x2="990" y1="690" y2="660" /><circle cx="990" cy="660" fill="none" r="7.5" stroke="#245840" stroke-width="2" /><path d="M970,710 q40.0,-20 80,0" fill="none" stroke="#245840" stroke-width="2" /><line stroke="#245840" stroke-width="2" x1="990" x2="990" y1="810" y2="780" /><circle cx="990" cy="780" fill="none" r="7.5" stroke="#245840" stroke-width="2" /><path d="M970,830 q40.0,-20 80,0" fill="none" stroke="#245840" stroke-width="2" /><line stroke="#245840" stroke-width="2" x1="990" x2="990" y1="930" y2="900" /><circle cx="990" cy="900" fill="none" r="7.5" stroke="#245840" stroke-width="2" /><path d="M970,950 q40.0,-20 80,0" fill="none" stroke="#245840" stroke-width="2" /><line stroke="#245840" stroke-width="2" x1="990" x2="990" y1="1050" y2="1020" /><circle cx="990" cy="1020" fill="none" r="7.5" stroke="#245840" stroke-width="2" /><path d="M970,1070 q40.0,-20 80,0" fill="none" stroke="#245840" stroke-width="2" /></svg>